<?xml version="1.0" standalone="no"?>
<!DOCTYPE svg PUBLIC "-//W3C//DTD SVG 20010904//EN"
 "http://www.w3.org/TR/2001/REC-SVG-20010904/DTD/svg10.dtd">
<svg version="1.0" xmlns="http://www.w3.org/2000/svg"
 width="528.000000pt" height="528.000000pt" viewBox="0 0 528.000000 528.000000"
 preserveAspectRatio="xMidYMid meet">
<metadata>
Created by potrace 1.11, written by Peter Selinger 2001-2013
</metadata>
<g transform="translate(0.000000,528.000000) scale(0.100000,-0.100000)"
fill="#000000" stroke="none">
<path d="M1905 4782 l-680 -3 -63 -112 c-34 -62 -90 -159 -124 -217 -34 -58
-78 -134 -98 -170 -20 -36 -63 -110 -95 -165 -85 -145 -123 -212 -165 -285
-20 -36 -60 -105 -90 -155 -29 -49 -70 -121 -92 -160 -52 -91 -98 -171 -188
-325 -40 -69 -99 -170 -130 -225 -32 -55 -73 -127 -93 -160 -20 -33 -49 -84
-64 -112 l-27 -53 27 -52 c15 -29 44 -80 64 -113 20 -33 64 -109 98 -170 34
-60 93 -162 130 -225 73 -122 119 -202 183 -315 22 -38 63 -110 92 -160 30
-49 70 -119 90 -155 20 -36 63 -110 95 -165 32 -55 91 -156 130 -225 40 -69
100 -172 133 -230 34 -58 90 -156 124 -217 l63 -112 683 -1 c375 0 682 3 682
8 0 4 103 4 230 0 126 -4 459 -9 739 -10 l509 -3 54 95 c315 548 448 782 448
790 0 4 4 10 8 12 4 2 22 29 40 61 l33 58 -66 76 c-36 42 -65 79 -65 82 0 3
43 6 96 6 l97 0 42 70 c229 381 519 872 522 884 2 9 -14 45 -35 81 -21 36
-132 223 -247 415 -276 466 -279 469 -283 475 -2 3 -48 7 -103 10 l-98 5 65
77 65 77 -81 143 c-45 79 -99 172 -120 208 -21 36 -113 198 -206 360 -92 162
-172 298 -178 302 -10 7 -513 7 -2151 0z m1415 -1064 c-18 -24 -43 -60 -58
-81 l-25 -38 23 -42 c13 -23 51 -87 85 -142 77 -125 210 -348 250 -418 17 -30
50 -86 75 -126 25 -39 57 -92 72 -116 l27 -44 86 -3 85 -3 -24 -27 -25 -26 41
-52 41 -51 -109 2 c-98 1 -109 0 -106 -16 2 -11 -1 -14 -9 -9 -9 5 -10 2 -6
-9 4 -10 2 -16 -5 -14 -6 1 -13 -4 -16 -12 -3 -9 0 -11 9 -7 8 4 3 -1 -11 -13
-14 -11 -25 -26 -26 -33 -1 -25 -16 -58 -24 -53 -4 3 -11 -2 -14 -11 -4 -10
-2 -13 7 -8 8 5 8 2 -2 -9 -7 -9 -17 -14 -22 -11 -5 3 -6 -3 -2 -12 4 -11 2
-15 -4 -11 -6 4 -14 0 -17 -9 -3 -8 -2 -12 4 -9 6 4 5 -4 -1 -19 -7 -14 -17
-24 -23 -23 -6 1 -10 -6 -10 -15 1 -10 -2 -18 -7 -18 -5 0 -9 -7 -9 -15 0 -9
-12 -27 -26 -40 -15 -14 -23 -29 -18 -36 4 -8 3 -9 -4 -5 -7 4 -12 1 -12 -7 0
-8 -7 -18 -16 -21 -9 -3 -14 -13 -11 -20 3 -8 -1 -17 -10 -20 -8 -4 -13 -13
-9 -21 3 -9 0 -15 -9 -15 -8 0 -15 -9 -15 -21 0 -12 -4 -18 -11 -13 -7 4 -10
1 -7 -7 3 -8 -2 -20 -11 -27 -9 -8 -10 -11 -4 -7 9 4 11 1 7 -9 -3 -9 -10 -14
-14 -11 -4 3 -13 -9 -19 -27 -6 -17 -21 -38 -32 -46 -15 -11 -18 -17 -9 -22 9
-6 2 -18 -24 -44 -35 -35 -47 -54 -26 -41 6 3 7 -1 4 -9 -3 -9 -10 -13 -15
-10 -5 3 -12 -9 -15 -26 -4 -17 -11 -33 -15 -36 -5 -3 4 -22 19 -42 15 -20 43
-56 60 -80 l33 -42 -486 -1 c-267 -1 -512 -3 -545 -4 -33 -1 -114 -3 -181 -4
l-121 -1 26 -45 c15 -24 37 -63 51 -87 65 -115 89 -158 125 -218 21 -36 51
-87 66 -115 14 -27 34 -61 44 -75 9 -14 20 -33 23 -43 13 -36 -3 -14 -45 61
-23 42 -47 85 -53 94 -5 10 -34 59 -64 110 -105 180 -125 214 -177 298 -52 86
-420 718 -477 820 -28 52 -48 85 -156 268 l-43 72 64 108 c35 59 84 141 108
182 24 41 69 118 100 170 31 52 75 127 97 165 23 39 81 138 130 220 49 83 105
178 123 213 l35 62 673 0 674 0 -32 -42z m-902 -2893 c12 -25 20 -45 18 -45
-2 0 -16 20 -29 45 -14 25 -22 45 -18 45 4 0 17 -20 29 -45z m75 -130 c15 -30
25 -55 23 -55 -3 0 -18 25 -34 55 -17 30 -27 55 -23 55 4 0 19 -25 34 -55z
m67 -116 c12 -23 20 -43 18 -45 -3 -2 -14 17 -26 41 -27 56 -20 60 8 4z"/>
</g>
</svg>
